<svg width="42" height="42" viewBox="0 0 42 42" fill="none" xmlns="http://www.w3.org/2000/svg">
     <path fill-rule="evenodd" clip-rule="evenodd" d="M20.7218 0C32.1478 0 41.4438 9.296 41.4438 20.722C41.4438 32.148 32.1478 41.444 20.7218 41.444C9.29576 41.444 -0.000244141 32.148 -0.000244141 20.722C-0.000244141 9.296 9.29576 0 20.7218 0ZM20.7218 3C10.9498 3 2.99976 10.952 2.99976 20.722C2.99976 30.494 10.9498 38.444 20.7218 38.444C30.4938 38.444 38.4438 30.494 38.4438 20.722C38.4438 10.952 30.4938 3 20.7218 3ZM28.465 12.9798C28.859 13.3758 29.003 13.9578 28.835 14.4878L25.651 24.6658C25.505 25.1358 25.135 25.5038 24.667 25.6498L14.489 28.8358C14.341 28.8818 14.189 28.9038 14.041 28.9038C13.649 28.9038 13.265 28.7498 12.979 28.4658C12.585 28.0698 12.441 27.4878 12.609 26.9578L15.795 16.7798C15.941 16.3078 16.309 15.9418 16.777 15.7958L26.955 12.6098C27.489 12.4398 28.069 12.5858 28.465 12.9798ZM25.117 16.3278L18.423 18.4238L16.329 25.1178L23.021 23.0218L25.117 16.3278Z" fill="#1C2860"/>
</svg>
