<svg width="24" height="26" viewBox="0 0 24 26" fill="none" xmlns="http://www.w3.org/2000/svg">
     <path fill-rule="evenodd" clip-rule="evenodd" d="M13.7173 16.7312C15.1268 16.7312 16.2741 17.8703 16.2741 19.2705V22.8717C16.2741 23.1726 16.5153 23.4138 16.8244 23.4208H19.0558C20.8142 23.4208 22.2437 22.0089 22.2437 20.2739V10.0604C22.2355 9.46332 21.951 8.90137 21.4628 8.5279L13.7442 2.3722C12.7081 1.55151 11.2587 1.55151 10.2191 2.37454L2.55317 8.52556C2.04624 8.91073 1.76175 9.47268 1.7559 10.0803V20.2739C1.7559 22.0089 3.18536 23.4208 4.9438 23.4208H7.19629C7.51356 23.4208 7.77112 23.1691 7.77112 22.86C7.77112 22.7921 7.77931 22.7242 7.79336 22.6598V19.2705C7.79336 17.8785 8.93365 16.7406 10.3327 16.7312H13.7173ZM19.0558 25.1769H16.8033C15.5132 25.1464 14.518 24.1338 14.518 22.8717V19.2705C14.518 18.8385 14.1586 18.4873 13.7173 18.4873H10.3385C9.90653 18.4897 9.54946 18.842 9.54946 19.2705V22.86C9.54946 22.9478 9.53775 23.0321 9.51317 23.1117C9.38673 24.2707 8.39629 25.1769 7.19629 25.1769H4.9438C2.21717 25.1769 -0.000200033 22.9771 -0.000200033 20.2739V10.0721C0.0115073 8.90839 0.547702 7.84302 1.47375 7.14176L9.12448 1.00127C10.8092 -0.333366 13.1565 -0.333366 14.8377 0.998927L22.5434 7.14527C23.4484 7.83483 23.9846 8.89785 23.9998 10.0475V20.2739C23.9998 22.9771 21.7824 25.1769 19.0558 25.1769Z" fill="#1C2860"/>
</svg>
