<svg width="24" height="25" viewBox="0 0 24 25" fill="none" xmlns="http://www.w3.org/2000/svg">
<path fill-rule="evenodd" clip-rule="evenodd" d="M11.2019 0.525379C11.6904 0.525379 12.087 0.921905 12.087 1.41048C12.087 1.89906 11.6904 2.29559 11.2019 2.29559H6.78933C3.73986 2.29559 1.77021 4.38443 1.77021 7.61683V17.4285C1.77021 20.6609 3.73986 22.7497 6.78933 22.7497H17.2029C20.2523 22.7497 22.2232 20.6609 22.2232 17.4285V12.6749C22.2232 12.1863 22.6197 11.7898 23.1083 11.7898C23.5969 11.7898 23.9934 12.1863 23.9934 12.6749V17.4285C23.9934 21.6699 21.2637 24.5199 17.2029 24.5199H6.78933C2.72848 24.5199 0 21.6699 0 17.4285V7.61683C0 3.37541 2.72848 0.525379 6.78933 0.525379H11.2019ZM21.4804 1.56225L22.9166 2.99848C23.6164 3.69712 24.0012 4.62589 24 5.61484C24 6.6038 23.6153 7.53139 22.9166 8.22885L14.055 17.0905C13.4047 17.7408 12.5385 18.0995 11.618 18.0995H7.19719C6.9588 18.0995 6.72985 18.0028 6.56346 17.8316C6.39706 17.6617 6.30619 17.4316 6.31209 17.192L6.42302 12.7323C6.44544 11.8448 6.80302 11.0104 7.43086 10.3814H7.43204L16.2512 1.56225C17.6933 0.12248 20.0383 0.12248 21.4804 1.56225ZM15.5247 4.79111L8.68298 11.6335C8.37733 11.9392 8.20385 12.3452 8.19323 12.7759L8.10472 16.3293H11.618C12.0664 16.3293 12.4866 16.1558 12.804 15.8384L19.6871 8.95345L15.5247 4.79111ZM17.5022 2.81437L16.7757 3.53898L20.938 7.70251L21.6657 6.97672C22.0292 6.61324 22.2298 6.12938 22.2298 5.61484C22.2298 5.09912 22.0292 4.61409 21.6657 4.2506L20.2295 2.81437C19.4777 2.06499 18.2551 2.06499 17.5022 2.81437Z" fill="#1C2860"/>
</svg>
