<svg width="24" height="25" viewBox="0 0 24 25" fill="none" xmlns="http://www.w3.org/2000/svg">
<path fill-rule="evenodd" clip-rule="evenodd" d="M5.23077 14.0209C10.2388 14.0209 10.4615 15.7193 10.4615 19.2517C10.4615 21.0215 10.4615 22.2806 9.71815 23.2024C8.86277 24.2646 7.30585 24.4824 5.23077 24.4824C3.15569 24.4824 1.59877 24.2646 0.743385 23.2024C0 22.2806 0 21.0227 0 19.2824L0.923077 19.2517H0C0 15.7193 0.22277 14.0209 5.23077 14.0209ZM18.7692 14.0209C23.7772 14.0209 24 15.7193 24 19.2517C24 21.0215 24 22.2806 23.2566 23.2024C22.4012 24.2646 20.8443 24.4824 18.7692 24.4824C16.6942 24.4824 15.1372 24.2646 14.2818 23.2024C13.5385 22.2806 13.5385 21.0227 13.5385 19.2824L14.4615 19.2517H13.5385C13.5385 15.7193 13.7612 14.0209 18.7692 14.0209ZM5.48451 15.8676L5.23077 15.867C2.01972 15.867 1.85505 16.0975 1.84661 18.7926L1.84713 19.8426C1.85296 20.9146 1.8938 21.6889 2.17969 22.0455C2.50585 22.4492 3.47446 22.6363 5.23077 22.6363C6.98708 22.6363 7.95569 22.448 8.28185 22.0443C8.61539 21.6295 8.61539 20.6449 8.61539 19.2812C8.61539 16.204 8.61539 15.8821 5.48451 15.8676ZM19.023 15.8676L18.7692 15.867C15.5582 15.867 15.3935 16.0975 15.3851 18.7926L15.3856 19.8426C15.3914 20.9146 15.4323 21.6889 15.7182 22.0455C16.0443 22.4492 17.0129 22.6363 18.7692 22.6363C20.5255 22.6363 21.4942 22.448 21.8203 22.0443C22.1538 21.6295 22.1538 20.6449 22.1538 19.2812C22.1538 16.204 22.1538 15.8821 19.023 15.8676ZM5.23077 0.482422C10.2388 0.482422 10.4615 2.18088 10.4615 5.71319C10.4615 7.48304 10.4615 8.74211 9.71815 9.66396C8.86277 10.7261 7.30585 10.944 5.23077 10.944C3.15569 10.944 1.59877 10.7261 0.743385 9.66396C0 8.74211 0 7.48427 0 5.74396L0.923077 5.71319H0C0 2.18088 0.22277 0.482422 5.23077 0.482422ZM18.7692 0.482422C23.7772 0.482422 24 2.18088 24 5.71319C24 7.48304 24 8.74211 23.2566 9.66396C22.4012 10.7261 20.8443 10.944 18.7692 10.944C16.6942 10.944 15.1372 10.7261 14.2818 9.66396C13.5385 8.74211 13.5385 7.48427 13.5385 5.74396L14.4615 5.71319H13.5385C13.5385 2.18088 13.7612 0.482422 18.7692 0.482422ZM5.48451 2.32913L5.23077 2.32858C2.01972 2.32858 1.85505 2.55899 1.84661 5.25418L1.84713 6.30418C1.85296 7.37614 1.8938 8.15047 2.17969 8.50704C2.50585 8.91073 3.47446 9.09781 5.23077 9.09781C6.98708 9.09781 7.95569 8.9095 8.28185 8.50581C8.61539 8.09104 8.61539 7.10642 8.61539 5.74273C8.61539 2.66555 8.61539 2.34361 5.48451 2.32913ZM19.023 2.32913L18.7692 2.32858C15.5582 2.32858 15.3935 2.55899 15.3851 5.25418L15.3856 6.30418C15.3914 7.37614 15.4323 8.15047 15.7182 8.50704C16.0443 8.91073 17.0129 9.09781 18.7692 9.09781C20.5255 9.09781 21.4942 8.9095 21.8203 8.50581C22.1538 8.09104 22.1538 7.10642 22.1538 5.74273C22.1538 2.66555 22.1538 2.34361 19.023 2.32913Z" fill="#1C2860"/>
</svg>
