<svg width="41" height="41" viewBox="0 0 41 41" fill="none" xmlns="http://www.w3.org/2000/svg">
     <path d="M40.6103 22.1712C40.758 22.2543 40.7875 22.4303 40.7934 22.4974L40.7949 22.5241L40.6308 33.1114C40.6308 37.3347 37.3586 40.7786 33.2382 40.9897L32.8369 41H8.14257C3.97002 41 0.567397 37.688 0.358808 33.5176L0.348674 33.1114L0.205103 22.5241C0.205103 22.5241 0.205103 22.275 0.389695 22.1712C0.553777 22.0674 0.758879 22.192 0.77939 22.2128C4.92246 24.9945 9.90645 26.8421 15.1366 27.6102C15.8749 27.714 16.6133 27.2365 16.8184 26.4892C17.2414 24.8933 18.5478 23.8083 20.1459 23.6789L20.4692 23.6659H20.5308C22.2741 23.6659 23.7304 24.7869 24.1816 26.4892C24.3867 27.2365 25.1251 27.714 25.8634 27.6102C31.0935 26.8421 36.0775 24.9945 40.2206 22.2128C40.2206 22.2128 40.2616 22.192 40.3027 22.1712C40.3847 22.1297 40.5078 22.109 40.6103 22.1712ZM20.4897 26.6345C19.7189 26.6345 19.0687 27.2276 18.9657 27.982L18.9515 28.1915V30.8694C18.9515 31.7413 19.6488 32.4264 20.4897 32.4264C21.2794 32.4264 21.9139 31.8507 22.0142 31.0832L22.028 30.8694V28.1915C22.028 27.3403 21.3512 26.6345 20.4897 26.6345ZM23.1356 0C26.2121 0 28.7349 2.34581 29.1246 5.35592H33.1856C37.4927 5.35592 41 8.90578 41 13.2652C41 13.2652 40.8769 15.1108 40.8359 17.6808C40.8318 17.8842 40.7334 18.0835 40.5713 18.2039C39.5848 18.9326 38.6823 19.5346 38.6003 19.5761C35.1956 21.8596 31.2392 23.4664 27.0243 24.2656C26.7495 24.3196 26.4787 24.1764 26.3393 23.9314C25.1579 21.8845 22.951 20.5518 20.4897 20.5518C18.0449 20.5518 15.8175 21.87 14.6013 23.919C14.4597 24.1598 14.1931 24.2989 13.9203 24.247C9.74032 23.4457 5.78389 21.841 2.3997 19.5969L0.430715 18.2267C0.266633 18.1229 0.164082 17.9361 0.164082 17.7285C0.102551 16.6698 0 13.2652 0 13.2652C0 8.90578 3.50725 5.35592 7.81441 5.35592H11.8549C12.2446 2.34581 14.7674 0 17.8439 0H23.1356ZM23.1356 3.11391H17.8439C16.4697 3.11391 15.3006 4.06884 14.9725 5.35592H26.007C25.6788 4.06884 24.5098 3.11391 23.1356 3.11391Z" fill="#1B85C0"/>
</svg>
