<svg width="24" height="27" viewBox="0 0 24 27" fill="none" xmlns="http://www.w3.org/2000/svg">
<path fill-rule="evenodd" clip-rule="evenodd" d="M12.7776 0.52002C13.6687 0.52002 14.5348 0.8859 15.1558 1.52184C15.7756 2.16151 16.1178 3.03887 16.0917 3.92868C16.0942 4.12905 16.1601 4.36052 16.2796 4.56338C16.4775 4.89939 16.7898 5.13584 17.1607 5.23291C17.5316 5.32501 17.9198 5.27523 18.2496 5.07984C19.8426 4.17012 21.8699 4.7152 22.7796 6.29571L23.5549 7.63852C23.5748 7.67461 23.5922 7.70945 23.6072 7.74554C24.431 9.3024 23.881 11.2625 22.3502 12.1573C22.1275 12.2855 21.947 12.4647 21.8226 12.6812C21.6297 13.016 21.5762 13.4142 21.6732 13.7801C21.7728 14.1534 22.0105 14.4633 22.3453 14.655C23.1007 15.0893 23.6644 15.8211 23.8897 16.6661C24.1149 17.5098 23.9917 18.4258 23.5524 19.1812L22.7261 20.5576C21.8164 22.1207 19.7891 22.662 18.2123 21.7511C18.002 21.6303 17.7593 21.5644 17.5179 21.5582H17.5104C17.1507 21.5582 16.7811 21.7112 16.5123 21.9788C16.2398 22.2513 16.0904 22.6147 16.0929 23.0005C16.0842 24.8287 14.5971 26.3071 12.7776 26.3071H11.2183C9.39009 26.3071 7.90293 24.8212 7.90293 22.9931C7.90044 22.7678 7.83572 22.5338 7.71501 22.331C7.51962 21.99 7.20352 21.7461 6.83888 21.649C6.47674 21.5519 6.07974 21.6055 5.75369 21.7946C4.97215 22.2302 4.05247 22.336 3.21119 22.0995C2.37116 21.8618 1.64562 21.2844 1.22 20.519L0.442193 19.1787C-0.467531 17.6007 0.073823 15.5784 1.64935 14.6674C2.09612 14.4098 2.37365 13.9294 2.37365 13.4142C2.37365 12.899 2.09612 12.4174 1.64935 12.1598C0.0725786 11.2438 -0.467531 9.21653 0.440948 7.63852L1.28471 6.2534C2.18199 4.6928 4.21052 4.14274 5.79227 5.05122C6.00756 5.1794 6.24153 5.24411 6.47923 5.2466C7.25455 5.2466 7.90293 4.60693 7.91537 3.82041C7.91039 2.953 8.25263 2.12044 8.87612 1.49197C9.5021 0.864744 10.3334 0.52002 11.2183 0.52002H12.7776ZM12.7776 2.38676H11.2183C10.8325 2.38676 10.4716 2.53734 10.199 2.80864C9.92772 3.08119 9.77962 3.44333 9.78211 3.82913C9.75597 5.64857 8.26881 7.11334 6.46803 7.11334C5.89058 7.10712 5.33429 6.95156 4.85143 6.66283C4.17318 6.27704 3.2871 6.51474 2.89011 7.20543L2.04759 8.59055C1.6618 9.26009 1.89825 10.1449 2.58521 10.5444C3.60445 11.1343 4.24038 12.2344 4.24038 13.4142C4.24038 14.594 3.60445 15.6929 2.58272 16.284C1.89949 16.6798 1.66304 17.5596 2.05879 18.2441L2.84406 19.5981C3.0382 19.9478 3.35555 20.2004 3.72268 20.3037C4.08856 20.4058 4.49177 20.3622 4.82778 20.1755C5.32185 19.8856 5.8968 19.735 6.47425 19.735C6.75924 19.735 7.04423 19.7711 7.32299 19.8457C8.16427 20.0722 8.89479 20.6348 9.32787 21.3902C9.60913 21.8643 9.76469 22.4181 9.76966 22.9831C9.76966 23.792 10.4193 24.4404 11.2183 24.4404H12.7776C13.5728 24.4404 14.2225 23.7958 14.2262 23.0005C14.2212 22.1219 14.5647 21.2869 15.1932 20.6584C15.8129 20.0386 16.6791 19.6665 17.5453 19.6914C18.1127 19.7051 18.6591 19.8582 19.1407 20.132C19.8339 20.529 20.7187 20.2925 21.1194 19.608L21.9458 18.2304C22.13 17.913 22.1835 17.5148 22.0852 17.1477C21.9881 16.7806 21.7442 16.462 21.4156 16.2741C20.6465 15.831 20.0977 15.1167 19.87 14.2605C19.6447 13.4204 19.7679 12.5032 20.2072 11.7478C20.4935 11.25 20.9129 10.8306 21.4156 10.5419C22.0901 10.1474 22.3266 9.26507 21.9346 8.57811C21.9184 8.55073 21.9035 8.52211 21.891 8.49224L21.1617 7.22783C20.7648 6.53714 19.8812 6.29944 19.188 6.69395C18.4388 7.13699 17.5477 7.26392 16.6915 7.03867C15.8366 6.81715 15.1197 6.2758 14.673 5.51168C14.3867 5.03379 14.2312 4.47751 14.2262 3.91126C14.2374 3.48565 14.0881 3.10359 13.8168 2.82358C13.5467 2.54481 13.1671 2.38676 12.7776 2.38676ZM12.0034 9.19923C14.3269 9.19923 16.2173 11.0909 16.2173 13.4143C16.2173 15.7378 14.3269 17.6269 12.0034 17.6269C9.67994 17.6269 7.78955 15.7378 7.78955 13.4143C7.78955 11.0909 9.67994 9.19923 12.0034 9.19923ZM12.0034 11.066C10.7091 11.066 9.65629 12.1201 9.65629 13.4143C9.65629 14.7086 10.7091 15.7602 12.0034 15.7602C13.2977 15.7602 14.3505 14.7086 14.3505 13.4143C14.3505 12.1201 13.2977 11.066 12.0034 11.066Z" fill="#1C2860"/>
</svg>
