<svg width="24" height="27" viewBox="0 0 24 27" fill="none" xmlns="http://www.w3.org/2000/svg">
<path fill-rule="evenodd" clip-rule="evenodd" d="M17.0557 0.176758C21.2096 0.176758 24 3.02135 24 7.25455V19.4045C24 23.6747 21.2955 26.4519 17.1098 26.4783L6.94566 26.4823C2.79174 26.4823 0 23.6377 0 19.4045V7.25455C0 2.98303 2.70454 0.207146 6.89017 0.182043L17.0543 0.176758H17.0557ZM17.0557 2.15859L6.89678 2.16388C3.82097 2.18237 1.98183 4.08493 1.98183 7.25455V19.4045C1.98183 22.5953 3.83815 24.5005 6.94434 24.5005L17.1032 24.4965C20.179 24.478 22.0182 22.5728 22.0182 19.4045V7.25455C22.0182 4.06379 20.1632 2.15859 17.0557 2.15859ZM16.8008 17.9785C17.3478 17.9785 17.7917 18.4224 17.7917 18.9694C17.7917 19.5164 17.3478 19.9603 16.8008 19.9603H7.26157C6.71458 19.9603 6.27065 19.5164 6.27065 18.9694C6.27065 18.4224 6.71458 17.9785 7.26157 17.9785H16.8008ZM16.8008 12.4472C17.3478 12.4472 17.7917 12.8911 17.7917 13.4381C17.7917 13.9851 17.3478 14.429 16.8008 14.429H7.26157C6.71458 14.429 6.27065 13.9851 6.27065 13.4381C6.27065 12.8911 6.71458 12.4472 7.26157 12.4472H16.8008ZM10.9011 6.92873C11.4481 6.92873 11.8921 7.37266 11.8921 7.91965C11.8921 8.46664 11.4481 8.91057 10.9011 8.91057H7.26117C6.71419 8.91057 6.27026 8.46664 6.27026 7.91965C6.27026 7.37266 6.71419 6.92873 7.26117 6.92873H10.9011Z" fill="#1C2860"/>
</svg>
